<?xml version="1.0" encoding="utf-8"?>
<!-- Generator: Adobe Illustrator 21.1.0, SVG Export Plug-In . SVG Version: 6.00 Build 0)  -->
<svg version="1.1" id="Layer_1" xmlns="http://www.w3.org/2000/svg" xmlns:xlink="http://www.w3.org/1999/xlink" x="0px" y="0px"
	 viewBox="0 0 72 72" style="enable-background:new 0 0 72 72;" xml:space="preserve">
<style type="text/css">
	.st0{fill:#FFFFFF;}
</style>
<circle class="st0" cx="36" cy="36" r="35.6"/>
<g>
	<g>
		<path d="M41.7,25.6c-0.5,1.7,0.5,2.4,1.6,3c0.2,0.1,0.4,0.4,0.7,0.3c1.7-0.4,0.2-4.3-1.8-4C41.8,24.9,41.8,25.2,41.7,25.6z"/>
		<path d="M39.7,44.1c0.1-0.7,0.5-1.6,0.7-2.1c0.1-0.3,0.2-0.5,0.6-0.3c0.7,0.3,1.3,1.4,1.4,2.3c0.1,0.3,0.1,0.3,0.2,0.5
			c0-2.4-0.4-3.3-2.8-3.3c-0.4,0.9-0.4,2.1-0.4,3.5C39.7,44.8,39.6,44.6,39.7,44.1z"/>
		<path d="M45,57.3c0.1,1.1,0.9,2.1,1.1,3.2c0.2,1.4,0,2.8-0.1,4c0.3-0.4,0.4-0.8,0.5-1.3c0.2-0.6,0.6-1.2,0.7-1.9
			C47.5,59.8,45.7,58,45,57.3z"/>
		<path d="M37.4,60.3c-0.3-0.3-0.9-0.6-1.6-0.5c-0.4,0.1-0.6,0.3-0.7,0.7c-0.2,0.5-0.4,1.2-0.3,1.8c0.4-0.1,2.7-0.7,2.9-0.9
			C38,61,37.5,60.4,37.4,60.3z"/>
		<path d="M44.6,59.2c-0.5,0.1,0.4,2.1,0.1,2.9c-0.1,0.2-0.3,0.4-0.6,0.4c-0.2,0.1-0.4,0.1-0.6,0.2c-0.3-1.1,0-2.9-1.2-3
			c-0.2,0.2-0.2,0.3,0,0.6c0.3,0.8,0.4,1.7,0.6,2.7c0.2,1.2-0.7,3.4,0,4.1c0.2,0.2,0.6,0.2,0.9,0.1c0.4-0.1,1.3-1,1.5-1.3
			c0.4-1.1,0.3-5.2,0-6.1C45,59.5,45,59.1,44.6,59.2z"/>
		<path d="M37.1,54c0-0.2,0-0.1-0.1-0.2c-0.4,0.4-0.6,1-0.8,1.5c-0.1,0.3-0.3,0.6-0.2,0.9c0.1,0.3,2.7,1.1,3.1,1.2
			c-0.3-0.4-0.5-1-0.8-1.3C37.5,55.3,37,55.5,37.1,54z"/>
		<path d="M45.8,33.7c-0.1,0-0.3,0-0.4,0c-1.1,0.1-0.5,0.8-0.3,1.5c-1.3,0.3-2.8,0.5-4,0.8c-0.9,0.2-1.8,0.5-2.6,0.8
			c-0.9,0.3-1.7,0.6-2.4,1c0.6-0.2,1.3-0.5,1.9-0.6c0.9-0.1,1.7,0.3,2.5,0.3c0.5,0,1.1-0.3,1.6-0.4c1.5-0.3,2.9-0.7,4.5-0.8
			c0.5,0,0.9-0.1,0.5-0.6C46.6,35.1,46.2,34.6,45.8,33.7z"/>
		<path d="M37.8,62c-0.2,0-2.6,0.8-2.9,1c0.2,0.7,0.8,1.5,1.6,1.6c1.3,0.2,1.7-1.2,1.5-2.4C38,62,38,62,37.8,62z"/>
		<path d="M39.9,34.5c1.8-0.2,4-0.9,5.8-1.2c-0.1-0.3-0.2-0.4-0.3-0.6c-0.2-0.4-0.9-2-1.4-1.9c-0.5,0-0.8,0.1-0.6,0.6
			c0.1,0.3,0.3,0.5,0.3,0.9c-1.3,0.3-2.6,0.5-3.8,0.8c-0.9,0.2-1.7,0.4-2.5,0.6c-0.8,0.3-1.7,0.6-2.4,1c0.7-0.2,1.5-0.5,2.5-0.5
			C38.3,34.3,39.1,34.6,39.9,34.5z"/>
		<path d="M68.1,36c0-17.8-14.5-32.3-32.3-32.3C18,3.7,3.5,18.2,3.5,36c0,17.5,13.9,31.7,31.3,32.3c0.3-0.9,0.6-1.7,1.1-2.2
			c0.7-0.7,1.6,0.3,2.6,0.2c1.4-0.2,1.6-1.5,2.5-2c0.4-0.2,0.7-0.3,0.9-0.7c0.4-1.2,0-2.6-0.4-3.5c-0.1-0.2-0.3-0.3-0.3-0.6
			c-0.1-1,0.5-1.5,0.3-2.3v-0.1c-0.4-0.8-1.1-0.7-1.6-1.3c-0.6-0.7-1-1.7-1.7-2.1c0.1,0.3,0.1,0.4,0.2,0.6c0.3,0.8,0.6,1.6,1,2.4
			c0.9,1.9,2.6,5.3,1.2,7.6c-1.3,2.1-4.8,1.4-5.9-0.5c-0.5-0.8-0.4-1.7-0.6-2.8c-0.1-0.6-2.7-4.3-3.1-4.9c-0.6-0.7-1.7-0.8-2.5-1.1
			c-1.6-0.6-3.5-2-4.1-3.6c-0.4,0-0.4-0.5-0.4-0.5c-0.1-0.7,0.4-0.9,0.9-1.2c0.4-0.2,1.2-0.8,1.6-0.7c1,0.1,0.8,1.5,1.2,2.2
			c0.3,0.5,1,1,1.5,1.3c1,0.5,2.7,1.6,4,1.5s1.5-1.4,2.3-1.6c0.6-0.1,1.3,0.5,1.9,0.3c0.5-0.1,1.1-1.1,1.5-1.4
			c0.4-0.3,1-1.1,1.4-1.2c0.4-0.2,0.7-0.1,1-0.3c1.1-0.9,2.2-2.7,2.4-4.5c0.1-1.4-0.5-2.9-0.4-3.8c0.1-0.6,1-1,1.6-0.6
			c0.3,0.2,0.4,1.1,0.5,1.5c0.1,0.6,0.4,1.4,0.4,1.9c0.3,2.7-3.8,5.9-5.1,7.5c0.6-0.3,1.1-1.2,1.7-1.3c0.3-0.1,0.6,0,0.7,0
			c0.4-0.1,0.8-0.8,1-1.1c1.9-2.3,3-4.2,1.9-8.2c0,0-0.1-0.3,0-0.3c0.1-0.5,0.4-0.9,1.1-0.6c0.6,0.2,0.7,1,0.8,1.6
			c0.2,0.9,0.6,1.9,0.4,2.9c-0.2,1.9-2,4-3.2,5.2c-0.5,0.5-1.4,1-1.7,1.7c0.2,0,0.4,0,0.6-0.1c0.8-0.3,1.6-1.2,2.1-1.8
			c1.7-1.7,3.1-3.5,2.8-7c-0.1-0.8-0.4-1.3-0.5-2c0,0.2,0-0.8,0.6-0.9c1-0.1,1.7,3.4,1.5,4.6c-0.1,0.6-0.5,1.2-0.7,1.7
			c-0.7,1.3-1.6,2.3-2.5,3.4c-0.8,0.9-2.1,1.3-2.4,2.7c-0.2,0.9,1,3.9,1.4,4.6c0.4,0.7,1.1,1.1,1.5,2c0.7,2,0,4.4-0.8,5.8
			c-0.1,0.2-0.3,0.3-0.4,0.5c-0.2,0.5-0.4,1-0.5,1.4C58.9,62.3,68.1,50.3,68.1,36z M34.6,10.2c0.7,0,0.9,0.6,1.4,1.3
			s0.4,1.4,0.6,2.3c0.2,0.9-1.3,0.6-1.4,0.1c-0.1-0.6-0.4-1.4-0.7-2s-1.6-1.5-1.6-1.5S33.9,10.2,34.6,10.2z M31.6,10.5
			c0.7,0,0.9,0.6,1.5,1.3s0.5,1.4,0.7,2.3c0.2,0.8-1.3,0.7-1.4,0.1c-0.1-0.6-0.5-1.3-0.8-2c-0.3-0.6-1.7-1.4-1.7-1.4
			S30.8,10.5,31.6,10.5z M17.3,30.2c0.4-0.6,0.9-0.8,1.4-1.3c0.6-0.7,1.2-1.3,1.9-1.9c0.4,0.2,0.4,0.4,0.6,0.8
			c0.7,1.4-1.5,2.4-2.4,3.1c-0.3,0.3-0.7,1.1-1.1,1.2C16.3,32.7,17.1,30.6,17.3,30.2z M18.9,35c-0.2,0.1-0.4,0-0.5-0.1
			c-1.7-0.8,1.4-3.4,1.9-3.7c0.4-0.3,0.8-1.2,1.4-1.2c0.4-0.1,0.5,0.4,0.6,0.7c0.1,0.3,0.3,0.8,0.1,1.2c-0.3,0.7-1.4,1.1-2,1.5
			C19.8,33.8,19.5,34.5,18.9,35L18.9,35z M19.1,37.5c-0.8-1,2.6-4.5,3.4-4.6c0.2,0,0.4,0.1,0.5,0.2c0.3,0.3,0.5,1.2,0.3,1.6
			c-0.2,0.2-3.6,3.1-3.7,3.1C19.4,37.9,19.3,37.7,19.1,37.5z M20.1,40.4c-1-0.9,3.1-4.6,3.7-4.7c0.3,0,0.4,0.2,0.5,0.4
			c0.1,0.3,0.4,1,0.2,1.4c-0.1,0.2-3.7,3-3.8,3.1C20.4,40.7,20.2,40.6,20.1,40.4z M21.7,43.5c-0.3,0.1-0.5-0.1-0.6-0.3
			c-0.8-1.1,2.8-4.5,3.7-4.6c0.3-0.1,0.4,0.1,0.5,0.2c0.2,0.3,0.5,0.9,0.3,1.5C25.5,40.6,22.1,43.3,21.7,43.5L21.7,43.5z M25.8,41.6
			c0.2,0,0.5,0.1,0.6,0.3c0.2,0.3,0.4,1.1,0.2,1.6l-3.5,2.9c-0.2,0.1-0.4-0.1-0.5-0.1C20.7,45.5,25.2,41.7,25.8,41.6z M27.4,46.5
			L27.4,46.5c-0.8,0.7-1.6,1.2-2.3,1.8c-0.3,0.2-0.7,1-1,1.1c-0.1,0-0.2,0-0.3,0c-3-0.3,2.6-4.9,3.2-4.9c0.2,0,0.4,0.3,0.5,0.5
			C27.7,45.4,27.7,46,27.4,46.5z M52.3,44.4c-0.1,0.2-0.2,0.2-0.3,0.3c-0.3,0.5-0.3,1.1-0.6,1.5c-0.9,1.3-3.3,4.1-4.8,4.7
			c-0.8,0.3,0.1-0.4,0.3-0.6c1.8-1.5,4.2-3.5,4.3-6.5c0-1.7-0.6-3.9-1.9-4.3c-1.3-0.4-1.6,0.2-2.4-0.8c0.2-0.3,0.6-0.5,0.7-0.8
			c0.1-0.3-0.6-1.2-0.9-1.2c-0.6,0-1,0.1-0.8,0.5c0.1,0.4,0.2,0.7,0.2,1c-3,0.4-6.5,1-8.6,2.5c0.3-0.1,0.7-0.3,1-0.3
			c0.5-0.1,2.3-0.7,2.8-0.5c0.3,0.1,1.5,2.6,1.6,3.1c0.9,3.5-3,6.9-4.7,8.5c-0.2,0.2-0.7,1-1,1.1c-0.4,0.1-0.8-0.3-1.1-0.4
			c-0.5-0.2-1.5-0.1-1-0.7c0.3-0.3,0.5-0.6,0.9-0.8c1.6-1,2.9-2.5,3.4-4.6c-0.3,0.2-0.6,0.3-1,0.3c0.1-1.3-0.4-1.8-0.6-2.7
			c-0.2-0.9-0.3-1.6-0.5-2.4c-0.5-0.1-0.8,0.1-1.2,0.2c-0.8,0.4-5.3,3-5.7,2.9c-0.4-0.1-0.6-0.5-0.7-0.9c-0.2-0.8,0.4-0.9,1-1.2
			c1.6-0.7,3.1-1.9,4.7-2.6c0.3-0.1,0.6-0.2,0.7-0.5c0.8-1.4-2.3,0-2.5,0c-1.3,0.6-2.6,1.8-4,2.2c-0.5,0.2-0.9-0.3-1-0.7
			c-0.1-0.2-0.2-0.6-0.1-0.8c0.2-0.5,4.1-2.5,4.9-2.8c0.5-0.2,1.5-0.5,1.7-1c0.6-1.2-1.9-0.2-2.1-0.1c-0.8,0.4-3.9,2.4-4.5,2.5
			c-0.4,0-0.8-0.3-0.9-0.6s-0.2-0.8-0.1-1c0.3-0.6,3.2-1.9,3.9-2.3c0.4-0.2,2-0.9,2.2-1.2c0.1-0.1,0.1-0.2,0.1-0.4
			c0-0.8-2,0.1-2.3,0.3l0,0c0,0-0.1,0.1-0.2,0.1h-0.1L31,33.5c-0.1,0-0.1,0-0.2,0c0,0-0.1,0-0.2,0.1c-0.8,0.4-2.8,1.9-3.4,2
			c-0.5,0.1-0.8-0.5-0.9-0.9c-0.1-0.2-0.1-0.6,0-0.8c0.2-0.5,2.6-1.6,3.1-1.9c0.7-0.4,3.2-1.4,3-2.3c-0.6-0.2-1.2,0.1-1.8,0.3
			c-1,0.4-3.9,2.6-4.6,2.6c-0.2,0-0.5-0.3-0.6-0.4c-0.4-0.6-0.3-1.3,0.2-1.6c1.1-0.7,2.2-1.4,3.3-2c0.6-0.3,1.2-0.6,1.8-0.9
			c0.7-0.4,1.3-1.4-0.3-0.9c-1.7,0.5-3.3,1.5-4.7,2.4c-0.2,0.1-0.5,0.4-0.6,0.4c-0.4,0-0.7-0.6-0.9-0.9c-0.4-1.1,1.5-1.7,2.1-2.1
			c0.8-0.5,3.7-1.8,3.9-2.6c-0.2-0.2-0.5-0.3-0.9-0.2c-0.7,0.2-1.4,0.6-2,0.9s-3.3,2.2-3.7,2c-0.3-0.2-0.9-1.2-0.6-1.7
			c0.3-0.4,1-0.6,1.4-0.8c1.4-0.8,3-1.7,4.3-2.6c0.1-0.1,0.1-0.2,0.2-0.4c0,0,0.1-0.3-0.1-0.4c-0.4-0.1-1,0.1-1.4,0.3
			c-0.9,0.4-1.8,1.1-2.6,1.6c-0.6,0.4-1.7,1.4-2.3,0.9c-0.3-0.2-0.8-0.7-0.6-1.2c0.1-0.3,3.7-2.5,4.2-2.9c0.4-0.2,1.4-0.5,1.5-0.9
			s-0.3-1.1-0.5-1.3c-1.1-1-5,2.2-4,0.2c0.1-0.3,0.6-0.6,0.5-1.1c-0.2-0.7-2.9,0.8-3,0.9h-0.1l-0.1,0.1c-0.9,0.7-4,4.4-3.1,6.2
			c0.2,0.4,0.8,0.4,1.2,0.5c0.9,0.3,1.5,1,1.8,2.1C19.3,27,18,27.8,17,29c-0.2,0.2-0.3,0.4-0.5,0.6c-0.7-0.4-0.8-1.1-0.9-2.1
			c-0.1-1-0.3-1.9-0.2-3.1c0.3-2.5,2.4-6.5,3.9-7.8c2.1-2,4-3.7,6.9-4.9c0.3-0.1,1.4-0.7,2.2-0.8c0.5,0,1.2,0.9,1.6,1.2
			c0.7,0.4,1.3,0.9,1.5,1.7c0.1,0.4,0,0.9-0.3,1.1c-2,1.3-2.4-1.2-3.4-1.6c-0.5-0.2-0.8,0-1.1,0.2v0.2c0.1,0.3,0.5,0.6,0.7,0.9
			c0.3,0.3,0.6,0.6,1,0.9c1.7,1.3,4.7,0.5,6.7,0c0.7-0.2,1.8-0.3,2.4-0.7c1.3-1-0.3-3.5-0.9-4.1c-0.1-0.1-0.8-0.6-0.6-0.6
			c0.6-0.1,1.4,0.1,1.8,0.2c0.9,0.1,1.7,0.3,2.4,0.6c1.5,0.8,4.1,3.9,3.3,6.4c0.8,0.2,1.9,0.6,1.5,1.8c-0.1,0.4-0.6,0.7-0.8,1.1
			c1,0.3,2.3,0.8,1.6,2.1c-0.1,0.3-0.4,0.4-0.6,0.8c0.9,0.1,1.8,0.3,1.9,1.1c0.1,0.7-0.5,1.4-0.9,1.8c0.3,0.1,1.1,0.1,1.4,0.4
			c1,0.9,0.1,1.9-0.3,2.5c1,0.2,2.2,0.4,1.8,1.9c-0.1,0.3-0.5,0.6-0.7,0.9c2.4,0.6,2.1,1.4,0.9,2.9c0.3,0.3,0.7,0.1,1.2,0.3
			c1.4,0.6,0.4,1.9,0,2.7c0.2,0.2,0.7,0.1,0.9,0.3c1,0.6,0.5,2.1,0.6,3.6C52.3,42.5,52.6,43.5,52.3,44.4z"/>
		<path d="M38.6,31.5c1.2,0,2.7-0.7,4-0.9c0.8-0.1,1.8-0.1,2.4-0.5c-0.2-0.2-0.4-0.5-0.7-0.6c-0.7-0.2-0.9,0.1-1.2-0.3
			c-0.6-0.8-1.6-1.6-1.8-2.8c-0.1-0.7,0.2-1,0.1-1.5c0.4-0.3,0.9-0.5,0.6-1c-0.2-0.6-0.2-1.8-1.1-1.8c-0.5,0-0.8,0.1-0.6,0.5
			c0.1,0.3,0.2,0.6,0.3,0.8c-1.5,0.5-3.3,0.6-4.8,1c-0.9,0.2-1.6,0.4-2.4,0.6c-0.4,0.1-2.9,1.2-1.3,0.7c0.8-0.2,1.6-0.6,2.6-0.5
			c0.4,0.1,0.7,0.4,1.1,0.3c1.7-0.1,3.2-1,5.1-1c0,0.6-0.1,1.1-0.3,1.4c-0.3,0.5-1,0.7-1.7,0.8c-2.1,0.4-4.1,0.9-5.8,1.6
			c-0.2,0.1-0.4,0.3-0.6,0.4c0.9-0.4,2.1-0.8,3.4-0.6c0.4,0,0.8,0.3,1.1,0.3c0.5,0,1.2-0.3,1.6-0.4c1.4-0.3,2.7-0.2,3.5,0.6
			c0.2,0.2,0.4,0.4,0.5,0.6c-3.3,0.8-6.6,1-9,2.6c0.8-0.3,1.7-0.8,2.5-0.8C36.9,31.2,38,31.5,38.6,31.5z"/>
		<path d="M31.7,19.6c0.4,0,0.8,0.3,1.2,0.3c2-0.2,4.1-0.9,6.4-1.1c0.5,0,0.6,0,0.5-0.5c-0.2-0.6-0.3-1.8-1.3-1.7
			c-0.2,0-0.5,0.3-0.3,0.3c0.1,0.3,0.1,0.5,0.2,0.7c-2,0.2-4,0.5-5.8,1c-0.8,0.2-1.5,0.4-2.2,0.7c-0.4,0.2-0.9,0.4-1.2,0.7
			C30,19.7,30.7,19.5,31.7,19.6z"/>
		<path d="M34.6,22.7c0.6,0,1.4-0.4,2-0.5c1.3-0.3,2.7-0.4,4.1-0.6c0.5-0.1,0.6,0.1,0.5-0.3c0-0.1,0-0.2,0-0.3
			c-0.2-0.5-0.7-1.9-1.4-1.9c-0.4,0-0.7,0.1-0.6,0.5c0.1,0.3,0.2,0.6,0.3,0.9c-1.9,0.2-3.9,0.5-5.6,1c-0.7,0.2-1.5,0.5-2.2,0.8
			c-0.5,0.2-1,0.4-1.4,0.7c0.8-0.2,1.7-0.8,2.7-0.7C33.6,22.3,34.2,22.7,34.6,22.7z"/>
	</g>
	<path d="M36,72C16.1,72,0,55.9,0,36S16.1,0,36,0s36,16.1,36,36S55.9,72,36,72z M36,1.3C16.8,1.3,1.3,16.9,1.3,36S16.9,70.7,36,70.7
		c19.2,0,34.7-15.6,34.7-34.7S55.2,1.3,36,1.3z"/>
</g>
</svg>
